<svg width="32" height="32" viewBox="0 0 32 32" fill="none" xmlns="http://www.w3.org/2000/svg">
<path fill-rule="evenodd" clip-rule="evenodd" d="M16.0003 5.3335C17.1403 5.3335 18.3097 5.36283 19.443 5.41083L20.7817 5.47483L22.063 5.55083L23.263 5.63216L24.359 5.7175C25.5486 5.80802 26.6681 6.31541 27.5203 7.1503C28.3725 7.98519 28.9027 9.09402 29.0177 10.2815L29.071 10.8482L29.171 12.0615C29.2643 13.3188 29.3337 14.6895 29.3337 16.0002C29.3337 17.3108 29.2643 18.6815 29.171 19.9388L29.071 21.1522L29.0177 21.7188C28.9027 22.9065 28.3722 24.0155 27.5198 24.8504C26.6673 25.6853 25.5475 26.1926 24.3577 26.2828L23.2643 26.3668L22.0643 26.4495L20.7817 26.5255L19.443 26.5895C18.2961 26.6392 17.1483 26.665 16.0003 26.6668C14.8524 26.665 13.7046 26.6392 12.5577 26.5895L11.219 26.5255L9.93766 26.4495L8.73766 26.3668L7.64166 26.2828C6.45208 26.1923 5.33259 25.6849 4.48038 24.85C3.62818 24.0151 3.09791 22.9063 2.98299 21.7188L2.92966 21.1522L2.82966 19.9388C2.7281 18.6283 2.67385 17.3146 2.66699 16.0002C2.66699 14.6895 2.73633 13.3188 2.82966 12.0615L2.92966 10.8482L2.98299 10.2815C3.09787 9.09423 3.62794 7.98557 4.47988 7.1507C5.33181 6.31584 6.45098 5.80832 7.64033 5.7175L8.73499 5.63216L9.93499 5.55083L11.2177 5.47483L12.5563 5.41083C13.7037 5.36113 14.8519 5.33535 16.0003 5.3335ZM13.3337 12.7668V19.2335C13.3337 19.8495 14.0003 20.2335 14.5337 19.9268L20.1337 16.6935C20.2555 16.6234 20.3567 16.5223 20.4271 16.4006C20.4975 16.2789 20.5345 16.1408 20.5345 16.0002C20.5345 15.8596 20.4975 15.7214 20.4271 15.5997C20.3567 15.478 20.2555 15.377 20.1337 15.3068L14.5337 12.0748C14.412 12.0046 14.274 11.9676 14.1335 11.9677C13.9931 11.9677 13.8551 12.0047 13.7334 12.075C13.6118 12.1452 13.5108 12.2463 13.4406 12.368C13.3705 12.4897 13.3336 12.6277 13.3337 12.7682V12.7668Z" fill="#717F94"/>
</svg>
